<mxfile host="app.diagrams.net" modified="2023-11-09T08:59:24.813Z" agent="Mozilla/5.0 (Windows NT 10.0; Win64; x64; rv:109.0) Gecko/20100101 Firefox/116.0" etag="KuujbNXtddrspJqZd83n" version="22.1.0" type="github">
  <diagram id="C5RBs43oDa-KdzZeNtuy" name="Page-1">
    <mxGraphModel dx="1760" dy="926" grid="1" gridSize="10" guides="1" tooltips="1" connect="1" arrows="1" fold="1" page="1" pageScale="1" pageWidth="827" pageHeight="1169" math="0" shadow="0">
      <root>
        <mxCell id="WIyWlLk6GJQsqaUBKTNV-0" />
        <mxCell id="WIyWlLk6GJQsqaUBKTNV-1" parent="WIyWlLk6GJQsqaUBKTNV-0" />
        <mxCell id="6eJlKw85BkEIQBGvRNYy-0" value="Start" style="ellipse;whiteSpace=wrap;html=1;" vertex="1" parent="WIyWlLk6GJQsqaUBKTNV-1">
          <mxGeometry x="270" y="30" width="120" height="80" as="geometry" />
        </mxCell>
        <mxCell id="6eJlKw85BkEIQBGvRNYy-4" style="edgeStyle=orthogonalEdgeStyle;rounded=0;orthogonalLoop=1;jettySize=auto;html=1;entryX=0.5;entryY=0;entryDx=0;entryDy=0;" edge="1" parent="WIyWlLk6GJQsqaUBKTNV-1" source="6eJlKw85BkEIQBGvRNYy-1" target="6eJlKw85BkEIQBGvRNYy-3">
          <mxGeometry relative="1" as="geometry" />
        </mxCell>
        <mxCell id="6eJlKw85BkEIQBGvRNYy-1" value="year,month" style="shape=parallelogram;perimeter=parallelogramPerimeter;whiteSpace=wrap;html=1;fixedSize=1;" vertex="1" parent="WIyWlLk6GJQsqaUBKTNV-1">
          <mxGeometry x="250" y="190" width="180" height="90" as="geometry" />
        </mxCell>
        <mxCell id="6eJlKw85BkEIQBGvRNYy-2" style="edgeStyle=orthogonalEdgeStyle;rounded=0;orthogonalLoop=1;jettySize=auto;html=1;entryX=0.575;entryY=-0.017;entryDx=0;entryDy=0;entryPerimeter=0;" edge="1" parent="WIyWlLk6GJQsqaUBKTNV-1" source="6eJlKw85BkEIQBGvRNYy-0" target="6eJlKw85BkEIQBGvRNYy-1">
          <mxGeometry relative="1" as="geometry" />
        </mxCell>
        <mxCell id="6eJlKw85BkEIQBGvRNYy-6" style="edgeStyle=orthogonalEdgeStyle;rounded=0;orthogonalLoop=1;jettySize=auto;html=1;entryX=0.5;entryY=0;entryDx=0;entryDy=0;" edge="1" parent="WIyWlLk6GJQsqaUBKTNV-1" source="6eJlKw85BkEIQBGvRNYy-3" target="6eJlKw85BkEIQBGvRNYy-5">
          <mxGeometry relative="1" as="geometry" />
        </mxCell>
        <mxCell id="6eJlKw85BkEIQBGvRNYy-8" style="edgeStyle=orthogonalEdgeStyle;rounded=0;orthogonalLoop=1;jettySize=auto;html=1;" edge="1" parent="WIyWlLk6GJQsqaUBKTNV-1" source="6eJlKw85BkEIQBGvRNYy-3" target="6eJlKw85BkEIQBGvRNYy-7">
          <mxGeometry relative="1" as="geometry" />
        </mxCell>
        <mxCell id="6eJlKw85BkEIQBGvRNYy-10" style="edgeStyle=orthogonalEdgeStyle;rounded=0;orthogonalLoop=1;jettySize=auto;html=1;entryX=0;entryY=0;entryDx=0;entryDy=0;" edge="1" parent="WIyWlLk6GJQsqaUBKTNV-1" source="6eJlKw85BkEIQBGvRNYy-3" target="6eJlKw85BkEIQBGvRNYy-9">
          <mxGeometry relative="1" as="geometry">
            <Array as="points">
              <mxPoint x="330" y="480" />
              <mxPoint x="530" y="480" />
            </Array>
          </mxGeometry>
        </mxCell>
        <mxCell id="6eJlKw85BkEIQBGvRNYy-12" style="edgeStyle=orthogonalEdgeStyle;rounded=0;orthogonalLoop=1;jettySize=auto;html=1;" edge="1" parent="WIyWlLk6GJQsqaUBKTNV-1" source="6eJlKw85BkEIQBGvRNYy-3" target="6eJlKw85BkEIQBGvRNYy-11">
          <mxGeometry relative="1" as="geometry" />
        </mxCell>
        <mxCell id="6eJlKw85BkEIQBGvRNYy-3" value="switch(month)" style="whiteSpace=wrap;html=1;aspect=fixed;" vertex="1" parent="WIyWlLk6GJQsqaUBKTNV-1">
          <mxGeometry x="270" y="340" width="120" height="120" as="geometry" />
        </mxCell>
        <mxCell id="6eJlKw85BkEIQBGvRNYy-18" style="edgeStyle=orthogonalEdgeStyle;rounded=0;orthogonalLoop=1;jettySize=auto;html=1;entryX=0;entryY=0.5;entryDx=0;entryDy=0;" edge="1" parent="WIyWlLk6GJQsqaUBKTNV-1" source="6eJlKw85BkEIQBGvRNYy-5" target="6eJlKw85BkEIQBGvRNYy-17">
          <mxGeometry relative="1" as="geometry" />
        </mxCell>
        <mxCell id="6eJlKw85BkEIQBGvRNYy-5" value="case 1,3,5,7,8,10,12" style="rhombus;whiteSpace=wrap;html=1;" vertex="1" parent="WIyWlLk6GJQsqaUBKTNV-1">
          <mxGeometry x="330" y="645" width="170" height="120" as="geometry" />
        </mxCell>
        <mxCell id="6eJlKw85BkEIQBGvRNYy-14" style="edgeStyle=orthogonalEdgeStyle;rounded=0;orthogonalLoop=1;jettySize=auto;html=1;" edge="1" parent="WIyWlLk6GJQsqaUBKTNV-1" source="6eJlKw85BkEIQBGvRNYy-7">
          <mxGeometry relative="1" as="geometry">
            <mxPoint x="820" y="327.5" as="targetPoint" />
          </mxGeometry>
        </mxCell>
        <mxCell id="6eJlKw85BkEIQBGvRNYy-7" value="case 4,6, 9,11" style="rhombus;whiteSpace=wrap;html=1;" vertex="1" parent="WIyWlLk6GJQsqaUBKTNV-1">
          <mxGeometry x="580" y="270" width="170" height="115" as="geometry" />
        </mxCell>
        <mxCell id="6eJlKw85BkEIQBGvRNYy-16" style="edgeStyle=orthogonalEdgeStyle;rounded=0;orthogonalLoop=1;jettySize=auto;html=1;entryX=0;entryY=0.5;entryDx=0;entryDy=0;" edge="1" parent="WIyWlLk6GJQsqaUBKTNV-1" source="6eJlKw85BkEIQBGvRNYy-9" target="6eJlKw85BkEIQBGvRNYy-15">
          <mxGeometry relative="1" as="geometry" />
        </mxCell>
        <mxCell id="6eJlKw85BkEIQBGvRNYy-9" value="case 2" style="rhombus;whiteSpace=wrap;html=1;" vertex="1" parent="WIyWlLk6GJQsqaUBKTNV-1">
          <mxGeometry x="580" y="560" width="200" height="110" as="geometry" />
        </mxCell>
        <mxCell id="6eJlKw85BkEIQBGvRNYy-20" style="edgeStyle=orthogonalEdgeStyle;rounded=0;orthogonalLoop=1;jettySize=auto;html=1;entryX=0.5;entryY=0;entryDx=0;entryDy=0;" edge="1" parent="WIyWlLk6GJQsqaUBKTNV-1" source="6eJlKw85BkEIQBGvRNYy-11" target="6eJlKw85BkEIQBGvRNYy-19">
          <mxGeometry relative="1" as="geometry" />
        </mxCell>
        <mxCell id="6eJlKw85BkEIQBGvRNYy-11" value="default" style="rhombus;whiteSpace=wrap;html=1;" vertex="1" parent="WIyWlLk6GJQsqaUBKTNV-1">
          <mxGeometry x="60" y="655" width="166.5" height="110" as="geometry" />
        </mxCell>
        <mxCell id="6eJlKw85BkEIQBGvRNYy-13" value="30 days" style="rounded=1;whiteSpace=wrap;html=1;" vertex="1" parent="WIyWlLk6GJQsqaUBKTNV-1">
          <mxGeometry x="827" y="300" width="120" height="60" as="geometry" />
        </mxCell>
        <mxCell id="6eJlKw85BkEIQBGvRNYy-15" value="28days" style="rounded=0;whiteSpace=wrap;html=1;" vertex="1" parent="WIyWlLk6GJQsqaUBKTNV-1">
          <mxGeometry x="890" y="610" width="120" height="60" as="geometry" />
        </mxCell>
        <mxCell id="6eJlKw85BkEIQBGvRNYy-17" value="31 days" style="rounded=0;whiteSpace=wrap;html=1;" vertex="1" parent="WIyWlLk6GJQsqaUBKTNV-1">
          <mxGeometry x="620" y="810" width="120" height="60" as="geometry" />
        </mxCell>
        <mxCell id="6eJlKw85BkEIQBGvRNYy-22" style="edgeStyle=orthogonalEdgeStyle;rounded=0;orthogonalLoop=1;jettySize=auto;html=1;entryX=0;entryY=0.5;entryDx=0;entryDy=0;" edge="1" parent="WIyWlLk6GJQsqaUBKTNV-1" source="6eJlKw85BkEIQBGvRNYy-19" target="6eJlKw85BkEIQBGvRNYy-21">
          <mxGeometry relative="1" as="geometry" />
        </mxCell>
        <mxCell id="6eJlKw85BkEIQBGvRNYy-19" value="du lieu sai" style="rounded=0;whiteSpace=wrap;html=1;" vertex="1" parent="WIyWlLk6GJQsqaUBKTNV-1">
          <mxGeometry x="83.25" y="890" width="120" height="60" as="geometry" />
        </mxCell>
        <mxCell id="6eJlKw85BkEIQBGvRNYy-21" value="end" style="ellipse;whiteSpace=wrap;html=1;" vertex="1" parent="WIyWlLk6GJQsqaUBKTNV-1">
          <mxGeometry x="1010" y="1030" width="270" height="160" as="geometry" />
        </mxCell>
        <mxCell id="6eJlKw85BkEIQBGvRNYy-23" style="edgeStyle=orthogonalEdgeStyle;rounded=0;orthogonalLoop=1;jettySize=auto;html=1;entryX=0;entryY=0.313;entryDx=0;entryDy=0;entryPerimeter=0;" edge="1" parent="WIyWlLk6GJQsqaUBKTNV-1" source="6eJlKw85BkEIQBGvRNYy-17" target="6eJlKw85BkEIQBGvRNYy-21">
          <mxGeometry relative="1" as="geometry" />
        </mxCell>
        <mxCell id="6eJlKw85BkEIQBGvRNYy-24" style="edgeStyle=orthogonalEdgeStyle;rounded=0;orthogonalLoop=1;jettySize=auto;html=1;entryX=0.415;entryY=-0.012;entryDx=0;entryDy=0;entryPerimeter=0;" edge="1" parent="WIyWlLk6GJQsqaUBKTNV-1" source="6eJlKw85BkEIQBGvRNYy-15" target="6eJlKw85BkEIQBGvRNYy-21">
          <mxGeometry relative="1" as="geometry" />
        </mxCell>
        <mxCell id="6eJlKw85BkEIQBGvRNYy-25" style="edgeStyle=orthogonalEdgeStyle;rounded=0;orthogonalLoop=1;jettySize=auto;html=1;entryX=0.681;entryY=-0.012;entryDx=0;entryDy=0;entryPerimeter=0;" edge="1" parent="WIyWlLk6GJQsqaUBKTNV-1" source="6eJlKw85BkEIQBGvRNYy-13" target="6eJlKw85BkEIQBGvRNYy-21">
          <mxGeometry relative="1" as="geometry" />
        </mxCell>
      </root>
    </mxGraphModel>
  </diagram>
</mxfile>
